<svg width="125" height="24" viewBox="0 0 125 24" fill="none" xmlns="http://www.w3.org/2000/svg">
<g clip-path="url(#clip0_73_633)">
<path d="M49.6032 12.2535C50.63 12.1163 52.0486 12.0869 53.1597 11.7854C53.1325 10.5601 52.939 9.53323 51.2971 9.53323C49.1865 9.53323 49.2411 11.5943 47.4083 11.5943C47.0956 11.5894 46.7909 11.4964 46.5299 11.3262C46.2689 11.156 46.0625 10.9157 45.935 10.6336V9.24159C46.1012 8.41814 46.7113 7.84222 47.4355 7.45746C48.5863 6.80803 49.8901 6.4699 51.2153 6.47717C55.0769 6.47717 57.1354 8.68282 57.0511 12.4104V21.9854C56.6344 22.0123 56.1062 22.0663 55.5779 22.0663C54.6057 22.0663 53.8269 21.9854 53.4375 21.331C52.6085 22.0473 51.5374 22.4296 50.4365 22.402C48.5467 22.402 46.5724 21.5786 45.5159 20.0959C44.9794 19.3239 44.6766 18.4168 44.6429 17.4809V17.2898C44.6974 14.3783 46.8105 12.6187 49.6032 12.2535ZM50.9078 19.2014C51.9643 19.2014 52.6885 18.8436 53.1597 18.2407V14.4322C52.939 14.4862 52.7158 14.5695 52.5496 14.5964C51.5204 14.79 50.4638 14.6798 49.7694 14.9542C49.0476 15.2826 48.5467 15.888 48.5467 16.6845V16.7384C48.5343 18.1353 49.4246 19.2112 50.8954 19.2112L50.9078 19.2014Z" fill="black"/>
<path d="M67.3487 1.38696C67.7094 1.41003 68.0493 1.56203 68.3049 1.81457C68.5605 2.06712 68.7143 2.40296 68.7376 2.75937V21.9853H65.9723C65.6116 21.9623 65.2717 21.8103 65.0161 21.5577C64.7605 21.3052 64.6067 20.9694 64.5834 20.6129V1.38696H67.3487Z" fill="black"/>
<path d="M111.937 2.75952H118.331C119.804 2.76469 121.215 3.34532 122.256 4.37469C123.297 5.40407 123.884 6.79863 123.889 8.25406C123.889 11.2734 121.386 13.7461 119.72 13.7461L125 22.3972C123.889 22.3972 120.414 22.26 119.998 21.5738L116.106 15.1749V21.9855H111.937V2.75952ZM117.641 5.91851H116.114V11.2734C118.346 11.1631 119.727 10.1754 119.727 8.25406C119.72 7.10712 119.048 5.91851 117.634 5.91851H117.641Z" fill="black"/>
<path d="M82.8695 6.87915C81.0962 6.95757 76.5823 7.67564 76.2153 12.9594V18.8265C76.2153 22.3972 79.1915 22.3972 82.6066 22.3972C82.6066 18.9367 80.1042 21.2992 80.1042 17.4541V12.5526C80.1042 11.315 81.8824 10.4891 83.2068 10.4891H83.5813V6.87915H82.8695Z" fill="black"/>
<path d="M80.1091 6.0507V2.75937C80.0945 2.40002 79.9434 2.0593 79.6861 1.805C79.4287 1.55069 79.0839 1.40145 78.7202 1.38696H76.2153V8.65828C76.6242 7.96235 77.1867 7.3665 77.8608 6.91504C78.535 6.46358 79.3035 6.16814 80.1091 6.0507Z" fill="black"/>
<path d="M94.0948 8.7442V2.75952H89.9256V12.0086C90.4588 10.8102 92.5099 9.17063 94.0948 8.7442Z" fill="black"/>
<path d="M100.211 2.75952V8.80302H100.169C100.169 8.80302 90.7887 9.29317 89.9256 15.9543V21.9855H94.0948V16.0376C94.093 15.5235 94.2228 15.0173 94.4721 14.5662C94.7215 14.115 95.0822 13.7334 95.5208 13.457C96.7941 12.7088 98.2253 12.2618 99.7024 12.1507H100.198V21.9855H104.368V2.75952H100.211Z" fill="black"/>
<path d="M35.1786 8.29813C34.7924 7.58334 34.2169 6.98571 33.5136 6.56915C32.8102 6.15259 32.0055 5.93276 31.1855 5.93318H20.9276C20.8606 5.93318 20.7961 5.93318 20.7341 5.93318L22.8894 9.80288H31.1855C31.2979 9.80279 31.4081 9.83287 31.5045 9.8899C31.6009 9.94693 31.6798 10.0288 31.7328 10.1267C31.7858 10.2246 31.8109 10.3349 31.8053 10.4457C31.7998 10.5566 31.7639 10.6639 31.7014 10.7562L25.5457 19.868C25.4868 19.9561 25.4058 20.0274 25.3105 20.0751C25.2153 20.1228 25.1091 20.1452 25.0025 20.1401C24.8958 20.1374 24.7918 20.1068 24.7011 20.0512C24.6105 19.9956 24.5364 19.9172 24.4866 19.8239L14.633 2.3012C14.2557 1.63176 13.7108 1.0693 13.0504 0.667756C12.39 0.266215 11.6362 0.0390541 10.8615 0.0080566C10.0867 -0.0229409 9.31683 0.143264 8.62572 0.490735C7.93463 0.838205 7.34545 1.35529 6.9147 1.9924L0.761424 11.1116C0.306475 11.7853 0.045186 12.5684 0.00544636 13.3773C-0.0342933 14.1863 0.149008 14.9907 0.535785 15.7047C0.922562 16.4188 1.4983 17.0157 2.20155 17.4317C2.90479 17.8477 3.70916 18.0672 4.52879 18.0667H8.09029C8.35264 18.076 8.61418 18.0329 8.8593 17.9401C9.10443 17.8472 9.32811 17.7066 9.51701 17.5264C9.70591 17.3463 9.85615 17.1304 9.95877 16.8917C10.0614 16.6529 10.1143 16.3962 10.1143 16.1368C10.1143 15.8774 10.0614 15.6207 9.95877 15.3819C9.85615 15.1431 9.70591 14.9273 9.51701 14.7471C9.32811 14.567 9.10443 14.4263 8.8593 14.3335C8.61418 14.2407 8.35264 14.1976 8.09029 14.2068H4.52879C4.41643 14.2069 4.30617 14.1769 4.20977 14.1198C4.11338 14.0628 4.03447 13.981 3.9815 13.8831C3.92852 13.7852 3.90346 13.6749 3.90899 13.564C3.91452 13.4531 3.95044 13.3458 4.01291 13.2535L10.1687 4.13434C10.2275 4.04665 10.3083 3.97541 10.4031 3.9275C10.4979 3.87959 10.6036 3.85662 10.71 3.86081C10.8165 3.86499 10.92 3.89619 11.0107 3.9514C11.1013 4.00661 11.1761 4.08396 11.2277 4.17601L21.0814 21.6987C21.4557 22.3717 22.0003 22.9373 22.6619 23.3402C23.3235 23.7431 24.0795 23.9696 24.8562 23.9975H25.0496C25.7944 23.9997 26.5281 23.8187 27.1844 23.4709C27.8408 23.1231 28.3993 22.6193 28.8095 22.0051L34.9628 12.8859C35.416 12.2122 35.6754 11.4296 35.7134 10.6215C35.7514 9.8135 35.5665 9.01044 35.1786 8.29813Z" fill="url(#paint0_linear_73_633)"/>
</g>
<defs>
<linearGradient id="paint0_linear_73_633" x1="17.8572" y1="23.7059" x2="17.8572" y2="0.252386" gradientUnits="userSpaceOnUse">
<stop stop-color="#F89C1C"/>
<stop offset="1" stop-color="#FFCB7C"/>
</linearGradient>
<clipPath id="clip0_73_633">
<rect width="125" height="24" fill="white"/>
</clipPath>
</defs>
</svg>
